<svg xmlns="http://www.w3.org/2000/svg" xmlns:xlink="http://www.w3.org/1999/xlink" viewBox="0 0 700 700"><defs><style>.cls-1{fill:none;}.cls-2{isolation:isolate;}.cls-3{fill:url(#linear-gradient);}.cls-4{clip-path:url(#clip-path);}.cls-5{fill:url(#radial-gradient);}.cls-6{fill:url(#linear-gradient-2);}.cls-7{mix-blend-mode:darken;fill:url(#linear-gradient-3);}</style><linearGradient id="linear-gradient" x1="306.2" y1="329.36" x2="131.91" y2="142.51" gradientUnits="userSpaceOnUse"><stop offset="0.01" stop-color="#4b96ff"></stop><stop offset="0.13" stop-color="#5a9fff"></stop><stop offset="0.38" stop-color="#82b6ff"></stop><stop offset="0.71" stop-color="#c2dcff"></stop><stop offset="1" stop-color="#fff"></stop></linearGradient><clipPath id="clip-path"><circle class="cls-1" cx="350" cy="348.6" r="350"></circle></clipPath><radialGradient id="radial-gradient" cx="327.99" cy="322.39" r="318.41" xlink:href="#linear-gradient"></radialGradient><linearGradient id="linear-gradient-2" x1="313.14" y1="278.75" x2="385.5" y2="493.04" gradientUnits="userSpaceOnUse"><stop offset="0.01" stop-color="#4b96ff"></stop><stop offset="0.23" stop-color="#4287f0"></stop><stop offset="0.66" stop-color="#2c5fc9"></stop><stop offset="1" stop-color="#183ca6"></stop></linearGradient><linearGradient id="linear-gradient-3" x1="620.37" y1="623.97" x2="169.18" y2="153.94" xlink:href="#linear-gradient-2"></linearGradient></defs><title>Voxco_home page redesign</title><g class="cls-2"><g id="Layer_1" data-name="Layer 1"><path class="cls-3" d="M482.94,298.7A132.68,132.68,0,0,0,224,269a103.89,103.89,0,0,0-85.81,102.3h0A103.86,103.86,0,0,0,242,475.13H467.62a88.88,88.88,0,0,0,88.88-88.88h0A88.9,88.9,0,0,0,482.94,298.7ZM429,401a12.58,12.58,0,0,1-12.63,12.52A143.56,143.56,0,0,1,276.67,273.67a12.38,12.38,0,0,1,3.68-8.84,12.23,12.23,0,0,1,8.75-3.65h28.72a13,13,0,0,1,12.49,12.21,90.92,90.92,0,0,0,4.45,24.9,13,13,0,0,1-4.05,12.83L314.82,327c6.17,13.71,24.78,37.92,48.37,48.32l15.86-15.86a12.67,12.67,0,0,1,12.77-4.16,87,87,0,0,0,25,4.5,12.66,12.66,0,0,1,8.53,3.71,12.38,12.38,0,0,1,3.74,8.78Z"></path><g class="cls-4"><polygon class="cls-5" points="836.11 608.67 584.76 860.01 174.13 449.38 217.91 405.61 499.39 453.13 378.82 244.69 425.48 198.03 836.11 608.67"></polygon></g><path class="cls-6" d="M482.94,298.7A132.68,132.68,0,0,0,224,269a103.89,103.89,0,0,0-85.81,102.3h0A103.86,103.86,0,0,0,242,475.13H467.62a88.88,88.88,0,0,0,88.88-88.88h0A88.9,88.9,0,0,0,482.94,298.7ZM289.11,261.18h28.72a13,13,0,0,1,12.49,12.21,90.93,90.93,0,0,0,4.45,24.9,13,13,0,0,1-4.05,12.83L314.82,327c6.17,13.71,24.78,37.92,48.37,48.32l15.86-15.86a12.67,12.67,0,0,1,12.77-4.16,87,87,0,0,0,25,4.5,12.66,12.66,0,0,1,8.53,3.71,12.38,12.38,0,0,1,3.74,8.78V401a12.58,12.58,0,0,1-12.63,12.52A143.56,143.56,0,0,1,276.67,273.67a12.38,12.38,0,0,1,3.68-8.84A12.23,12.23,0,0,1,289.11,261.18Z"></path><path class="cls-7" d="M326.38,264.58l-.07.17a13,13,0,0,1,4,8.64,90.92,90.92,0,0,0,4.45,24.9,13,13,0,0,1-4.05,12.83l-13.64,13.64,1.2,8.78c8.22,13.89,24.75,32.89,44.93,41.78l15.86-15.86a12.67,12.67,0,0,1,12.77-4.16,87,87,0,0,0,25,4.5,12.66,12.66,0,0,1,8.52,3.71,12.38,12.38,0,0,1,3.74,8.78V401a12.58,12.58,0,0,1-12.63,12.52,143.08,143.08,0,0,1-91.28-35.93l97.53,97.53h45a88.45,88.45,0,0,0,52.28-17Z"></path></g></g></svg>