<svg xmlns="http://www.w3.org/2000/svg" xmlns:xlink="http://www.w3.org/1999/xlink" viewBox="0 0 700 700"><defs><style>.cls-1{fill:none;}.cls-2{isolation:isolate;}.cls-3{clip-path:url(#clip-path);}.cls-4{fill:url(#radial-gradient);}.cls-5{fill:url(#radial-gradient-2);}.cls-6{fill:url(#radial-gradient-3);}.cls-7{fill:url(#linear-gradient);}.cls-8{fill:url(#linear-gradient-2);}.cls-9{clip-path:url(#clip-path-2);}.cls-10{opacity:0.5;mix-blend-mode:multiply;fill:url(#linear-gradient-3);}.cls-11{fill:url(#radial-gradient-4);}</style><clipPath id="clip-path"><circle class="cls-1" cx="350" cy="348.6" r="350"></circle></clipPath><radialGradient id="radial-gradient" cx="286.76" cy="-52.03" fx="325.3646390242948" fy="-59.151303923824045" r="475.16" gradientUnits="userSpaceOnUse"><stop offset="0.01" stop-color="#4b96ff"></stop><stop offset="0.13" stop-color="#5a9fff"></stop><stop offset="0.38" stop-color="#82b6ff"></stop><stop offset="0.71" stop-color="#c2dcff"></stop><stop offset="1" stop-color="#fff"></stop></radialGradient><radialGradient id="radial-gradient-2" cx="303.81" cy="-48.53" fx="303.80667038960746" fy="-48.527364036025574" r="475.16" xlink:href="#radial-gradient"></radialGradient><radialGradient id="radial-gradient-3" cx="404.42" cy="232.21" fx="404.4155861339732" fy="232.2058865811723" r="377.67" xlink:href="#radial-gradient"></radialGradient><linearGradient id="linear-gradient" x1="366.76" y1="199.25" x2="544.76" y2="387.25" gradientUnits="userSpaceOnUse"><stop offset="0.01" stop-color="#4b96ff"></stop><stop offset="0.23" stop-color="#4287f0"></stop><stop offset="0.66" stop-color="#2c5fc9"></stop><stop offset="1" stop-color="#183ca6"></stop></linearGradient><linearGradient id="linear-gradient-2" x1="299.73" y1="360.11" x2="547.73" y2="564.11" xlink:href="#linear-gradient"></linearGradient><clipPath id="clip-path-2"><path class="cls-1" d="M429.34,166.1a99.24,99.24,0,1,0,99.24,99.24A99.24,99.24,0,0,0,429.34,166.1Z"></path></clipPath><linearGradient id="linear-gradient-3" x1="485.59" y1="323.41" x2="450.59" y2="284.41" xlink:href="#linear-gradient"></linearGradient><radialGradient id="radial-gradient-4" cx="496.35" cy="410.95" fx="496.3485734613496" fy="410.95258299186844" r="175.65" xlink:href="#radial-gradient"></radialGradient></defs><title>Cati</title><g class="cls-2"><g id="Layer_1" data-name="Layer 1"><g class="cls-3"><polygon class="cls-4" points="725.86 423.71 589.68 559.89 367.2 337.41 447.89 347.55 480.12 314.71 503.38 201.23 725.86 423.71"></polygon><path class="cls-5" d="M346.86,455.76,385.61,417a31,31,0,0,1,31.21-10.17,212.44,212.44,0,0,0,61,11A30.93,30.93,0,0,1,498,426.32v0L256.9,185.18l-.18.43a31.68,31.68,0,0,1,9.81,21.1,222.14,222.14,0,0,0,10.86,60.83,31.69,31.69,0,0,1-9.9,31.35l-58.73,21.86,28.32,32.93C257.17,387.6,297.55,434,346.86,455.76Z"></path><path class="cls-6" d="M500.66,428.95l-.09.06a30.24,30.24,0,0,1,7.18,19.35v70.17a30.74,30.74,0,0,1-30.86,30.59,349.57,349.57,0,0,1-223-87.78L492.16,699.61H602A216.11,216.11,0,0,0,729.74,658Z"></path><path class="cls-7" d="M429.34,166.1a99.24,99.24,0,1,0,99.24,99.24A99.24,99.24,0,0,0,429.34,166.1Z"></path><path class="cls-8" d="M165.84,176.89H236a31.69,31.69,0,0,1,30.52,29.82,222.15,222.15,0,0,0,10.86,60.83,31.69,31.69,0,0,1-9.9,31.35L228.67,337.7c15.09,33.49,60.55,92.66,118.19,118.05L385.61,417a31,31,0,0,1,31.21-10.17,212.44,212.44,0,0,0,61,11,30.94,30.94,0,0,1,20.83,9.07,30.24,30.24,0,0,1,9.13,21.45v70.17a30.74,30.74,0,0,1-30.86,30.59C290.26,544.19,140.23,394,135.46,207.4a30.26,30.26,0,0,1,9-21.59A29.88,29.88,0,0,1,165.84,176.89Z"></path><g class="cls-9"><polygon class="cls-10" points="444.85 204.95 578.35 338.45 499.6 417.2 410.85 328.45 431.85 327.95 429.35 296.95 410.85 290.45 392.35 277.45 388.35 248.45 395.22 236.99 415.02 256.78 444.85 204.95"></polygon></g><rect class="cls-11" x="406.07" y="199.62" width="46.54" height="79" rx="21.54" ry="21.54"></rect><path class="cls-11" d="M473.18,255.74a44,44,0,0,1-39,43.57v22h13.66a4.86,4.86,0,1,1,0,9.72h-37a4.86,4.86,0,0,1,0-9.72h13.66v-22a44,44,0,0,1-39-43.57V237a4.86,4.86,0,0,1,9.72,0v18.75a34.12,34.12,0,0,0,68.24,0V237a4.86,4.86,0,1,1,9.72,0Z"></path></g></g></g></svg>